<?xml version="1.0" standalone="no"?>
<!DOCTYPE svg PUBLIC "-//W3C//DTD SVG 20010904//EN"
 "http://www.w3.org/TR/2001/REC-SVG-20010904/DTD/svg10.dtd">
<svg version="1.0" xmlns="http://www.w3.org/2000/svg"
 width="700.000000pt" height="700.000000pt" viewBox="0 0 700.000000 700.000000"
 preserveAspectRatio="xMidYMid meet">
<metadata>
Created by potrace 1.14, written by Peter Selinger 2001-2017
</metadata>
<g transform="translate(0.000000,700.000000) scale(0.100000,-0.100000)"
fill="#000000" stroke="none">
<path d="M1560 5674 c-322 -61 -534 -275 -590 -595 -14 -80 -16 -159 -15 -465
1 -203 5 -387 9 -409 31 -190 57 -270 119 -363 l29 -43 -41 -92 c-36 -84 -72
-196 -86 -272 -20 -111 -24 -148 -31 -265 -4 -60 -11 -108 -18 -112 -6 -4 -54
-22 -106 -39 -190 -63 -440 -173 -523 -229 -55 -37 -100 -92 -128 -155 -26
-59 -30 -77 -30 -150 -2 -200 176 -371 374 -360 70 4 91 11 202 64 93 45 201
90 251 105 18 5 22 1 27 -21 3 -16 8 -35 11 -43 4 -10 -9 -24 -41 -44 -111
-68 -220 -140 -241 -160 -86 -77 -133 -228 -108 -344 9 -41 52 -126 82 -161
33 -40 113 -93 165 -110 55 -18 139 -20 199 -4 55 14 72 23 205 108 44 28 100
63 125 77 l45 26 65 -49 c139 -105 361 -226 540 -294 143 -54 382 -128 490
-150 8 -2 35 -8 60 -13 25 -6 65 -14 90 -17 24 -4 47 -8 50 -10 3 -2 26 -6 50
-9 25 -4 74 -11 110 -16 288 -42 688 -48 940 -15 19 3 58 7 85 10 28 3 57 7
65 10 8 2 37 6 64 10 28 3 80 12 116 20 36 8 77 16 90 19 57 12 79 17 165 40
151 40 209 56 230 65 11 5 65 26 120 46 211 80 409 185 557 296 l77 57 81 -49
c44 -27 117 -72 162 -99 118 -72 185 -87 292 -65 120 25 207 93 259 205 27 56
31 75 31 150 0 158 -59 241 -266 372 l-130 81 7 36 c4 20 10 40 15 45 9 9 103
-27 280 -110 82 -38 130 -54 169 -57 140 -11 272 55 345 171 69 111 70 260 2
376 -51 87 -175 169 -371 246 -44 17 -93 37 -110 44 -16 8 -79 31 -140 51 -60
21 -114 42 -119 47 -6 4 -11 32 -12 60 -11 251 -52 439 -130 605 l-35 72 31
43 c51 70 84 160 116 318 11 57 15 818 4 891 -32 218 -143 403 -307 510 -66
43 -150 82 -208 96 -167 41 -297 37 -430 -11 -92 -34 -218 -96 -375 -185 -102
-58 -237 -132 -300 -165 -111 -58 -118 -60 -190 -60 -67 0 -127 6 -225 19
-175 25 -725 25 -852 1 -43 -9 -160 -19 -228 -20 -63 -1 -78 3 -155 41 -47 23
-111 57 -142 75 -115 67 -406 228 -411 228 -3 0 -34 13 -69 29 -66 30 -138 56
-185 67 -53 11 -188 11 -253 -2z m1076 -2355 c47 -44 69 -106 69 -199 0 -73
-4 -93 -28 -142 -78 -158 -230 -114 -265 78 -5 28 -7 59 -6 70 2 10 6 39 9 64
9 67 62 140 114 161 25 9 81 -7 107 -32z m1744 -9 c71 -71 88 -227 36 -334
-32 -65 -66 -90 -123 -91 -34 0 -48 6 -78 35 -118 115 -74 410 65 432 40 6 61
-3 100 -42z m-858 -984 c36 -5 89 -27 115 -48 21 -17 -3 -45 -54 -65 -70 -27
-262 -26 -318 1 -68 33 -71 53 -16 84 21 12 65 25 97 28 33 4 60 7 61 8 3 3
68 -2 115 -8z"/>
</g>
</svg>
